<svg id="Layer_1" data-name="Layer 1" xmlns="http://www.w3.org/2000/svg" xmlns:xlink="http://www.w3.org/1999/xlink" viewBox="0 0 24.1 24.1"><defs><style>.cls-1{fill:#f26722;}.cls-2{fill:#c90016;}.cls-3{fill:#fdb714;}.cls-4{fill:#fff;opacity:0.2;}.cls-4,.cls-5{isolation:isolate;}.cls-5{opacity:0.1;}.cls-6{fill:url(#未命名的渐变);}</style><linearGradient id="未命名的渐变" x1="3.01" y1="770.98" x2="25.15" y2="781.31" gradientTransform="translate(0 -766)" gradientUnits="userSpaceOnUse"><stop offset="0" stop-color="#fff" stop-opacity="0.2"/><stop offset="1" stop-color="#fff" stop-opacity="0"/></linearGradient></defs><title>ubuntu</title><circle id="_路径_" data-name="&lt;路径&gt;" class="cls-1" cx="2.5" cy="12" r="2.5"/><circle id="_路径_2" data-name="&lt;路径&gt;" class="cls-2" cx="19.5" cy="2.5" r="2.5"/><circle id="_路径_3" data-name="&lt;路径&gt;" class="cls-3" cx="19.5" cy="21.5" r="2.5"/><path class="cls-4" d="M19.5,19.3A2.71,2.71,0,0,1,22,21.1a2.54,2.54,0,0,0-5,0A2.58,2.58,0,0,1,19.5,19.3Z"/><path class="cls-5" d="M19.5,23.8A2.71,2.71,0,0,1,17,22a2.54,2.54,0,0,0,5,0A2.71,2.71,0,0,1,19.5,23.8Z"/><path class="cls-4" d="M19.5.3A2.71,2.71,0,0,1,22,2.1a2.54,2.54,0,0,0-5,0A2.58,2.58,0,0,1,19.5.3Z"/><path class="cls-5" d="M19.5,4.8A2.71,2.71,0,0,1,17,3a2.55,2.55,0,0,0,5-.1A2.67,2.67,0,0,1,19.5,4.8Z"/><path class="cls-1" d="M11.9,7.4A7.79,7.79,0,0,1,14,7a4.91,4.91,0,0,1,4.9,4.5H24a10.14,10.14,0,0,0-2.5-6.1,3.38,3.38,0,0,1-2,.6A3.54,3.54,0,0,1,16,2.5V2.2A12.31,12.31,0,0,0,14,2,10.39,10.39,0,0,0,9.4,3.1Z"/><path class="cls-3" d="M11.1,16a4.86,4.86,0,0,1,0-8L8.6,3.6A9.87,9.87,0,0,0,4.5,9.1,3.5,3.5,0,0,1,6,12a3.36,3.36,0,0,1-1.6,2.9,10.35,10.35,0,0,0,4.1,5.5Z"/><path class="cls-2" d="M16,21.5A3.54,3.54,0,0,1,19.5,18a3.61,3.61,0,0,1,2,.6A9.57,9.57,0,0,0,24,12.5H18.9A4.91,4.91,0,0,1,14,17a7.79,7.79,0,0,1-2.1-.4L9.4,20.9A10.07,10.07,0,0,0,14,22a12.31,12.31,0,0,0,2-.2Z"/><path class="cls-4" d="M16,2.5V2.3A6.45,6.45,0,0,0,14,2,10.39,10.39,0,0,0,9.4,3.1l.1.2a9.26,9.26,0,0,1,4.4-1.1A11.76,11.76,0,0,1,16,2.5Z"/><path class="cls-4" d="M21.5,5.6A9.7,9.7,0,0,1,24,10.9l.1.5a2.77,2.77,0,0,0-.1-.9,11.19,11.19,0,0,0-2.4-5.3,3.38,3.38,0,0,1-2,.6C19.5,6,20.9,6,21.5,5.6Z"/><path class="cls-5" d="M18.9,11.3A5.06,5.06,0,0,0,14,6.8a7.79,7.79,0,0,0-2.1.4L9.4,3.1l2.5,4.3A7.79,7.79,0,0,1,14,7a4.91,4.91,0,0,1,4.9,4.5H24v-.3H18.9Z"/><path class="cls-4" d="M8.6,3.9,11,8h.1L8.6,3.6A9.87,9.87,0,0,0,4.5,9.1l.1.1A9,9,0,0,1,8.6,3.9Z"/><path class="cls-5" d="M4.5,14.9h0a9.15,9.15,0,0,0,4.1,5.5l2.5-4.3L11,16,8.6,20.2A10.26,10.26,0,0,1,4.5,14.9Z"/><path class="cls-4" d="M14,17.3a4.91,4.91,0,0,0,4.9-4.5l5-.1v-.2H18.8A4.75,4.75,0,0,1,14,17a7.79,7.79,0,0,1-2.1-.4L9.4,20.9l2.5-4.1A5.37,5.37,0,0,0,14,17.3Z"/><path class="cls-5" d="M9.5,20.8l-.1.1A10.07,10.07,0,0,0,14,22a12.31,12.31,0,0,0,2-.2v-.2a12.31,12.31,0,0,1-2,.2A11.38,11.38,0,0,1,9.5,20.8Z"/><path class="cls-5" d="M21.5,18.4a3.38,3.38,0,0,0-2-.6A3.54,3.54,0,0,0,16,21.3v.1a3.44,3.44,0,0,1,3.5-3.3,3.61,3.61,0,0,1,2,.6,9.65,9.65,0,0,0,2.4-5.2c0-.3.1-.6.1-1v.1a1.7,1.7,0,0,1-.1.7A10.94,10.94,0,0,1,21.5,18.4Z"/><path class="cls-4" d="M2.5,9.8A2.71,2.71,0,0,1,5,11.6,2.49,2.49,0,0,0,2.5,9.5,2.49,2.49,0,0,0,0,11.6,2.58,2.58,0,0,1,2.5,9.8Z"/><path class="cls-5" d="M2.5,14.3A2.71,2.71,0,0,1,0,12.5a2.49,2.49,0,0,0,2.5,2.1A2.49,2.49,0,0,0,5,12.5,2.71,2.71,0,0,1,2.5,14.3Z"/><path class="cls-6" d="M2.5,9.5a2.5,2.5,0,0,0,0,5,2.5,2.5,0,0,0,0-5ZM19.5,5A2.48,2.48,0,0,0,22,2.5a2.5,2.5,0,0,0-5,0A2.48,2.48,0,0,0,19.5,5Zm0,14A2.5,2.5,0,1,0,22,21.5,2.48,2.48,0,0,0,19.5,19ZM14,7a4.91,4.91,0,0,1,4.9,4.5H24a10.14,10.14,0,0,0-2.5-6.1,3.38,3.38,0,0,1-2,.6A3.54,3.54,0,0,1,16,2.5V2.2A12.31,12.31,0,0,0,14,2,10.39,10.39,0,0,0,9.4,3.1l2.5,4.3A7.79,7.79,0,0,1,14,7ZM9,12a4.75,4.75,0,0,1,2.1-4L8.6,3.6A9.87,9.87,0,0,0,4.5,9.1,3.5,3.5,0,0,1,6,12a3.36,3.36,0,0,1-1.6,2.9,10.35,10.35,0,0,0,4.1,5.5L11,16.1A5.27,5.27,0,0,1,9,12Zm5,5a7.79,7.79,0,0,1-2.1-.4L9.4,20.9A10.07,10.07,0,0,0,14,22a12.31,12.31,0,0,0,2-.2v-.3A3.54,3.54,0,0,1,19.5,18a3.61,3.61,0,0,1,2,.6A9.57,9.57,0,0,0,24,12.5H18.9A4.91,4.91,0,0,1,14,17Z"/></svg>